<svg viewBox="0 0 136 41" fill="none" xmlns="http://www.w3.org/2000/svg">
<g clip-path="url(#clip0_13_2)">
<path d="M130.5 40.5H5.5C2.7 40.5 0.5 38.3 0.5 35.5V5.5C0.5 2.7 2.7 0.5 5.5 0.5H130.5C133.3 0.5 135.5 2.7 135.5 5.5V35.5C135.5 38.3 133.3 40.5 130.5 40.5Z" fill="black"/>
<path d="M130.5 1.3C132.8 1.3 134.7 3.2 134.7 5.5V35.5C134.7 37.8 132.8 39.7 130.5 39.7H5.5C3.2 39.7 1.3 37.8 1.3 35.5V5.5C1.3 3.2 3.2 1.3 5.5 1.3H130.5ZM130.5 0.5H5.5C2.7 0.5 0.5 2.8 0.5 5.5V35.5C0.5 38.3 2.7 40.5 5.5 40.5H130.5C133.3 40.5 135.5 38.3 135.5 35.5V5.5C135.5 2.8 133.3 0.5 130.5 0.5Z" fill="#A6A6A6"/>
<path d="M47.8999 10.7C47.8999 11.5 47.6999 12.2 47.1999 12.7C46.5999 13.3 45.8999 13.6 44.9999 13.6C44.0999 13.6 43.3999 13.3 42.7999 12.7C42.1999 12.1 41.8999 11.4 41.8999 10.5C41.8999 9.60002 42.1999 8.90002 42.7999 8.30002C43.3999 7.70002 44.0999 7.40002 44.9999 7.40002C45.3999 7.40002 45.7999 7.50002 46.1999 7.70002C46.5999 7.90002 46.8999 8.10002 47.0999 8.40002L46.5999 8.90002C46.1999 8.40002 45.6999 8.20002 44.9999 8.20002C44.3999 8.20002 43.7999 8.40002 43.3999 8.90002C42.8999 9.30002 42.6999 9.90002 42.6999 10.6C42.6999 11.3 42.8999 11.9 43.3999 12.3C43.8999 12.7 44.3999 13 44.9999 13C45.6999 13 46.1999 12.8 46.6999 12.3C46.9999 12 47.1999 11.6 47.1999 11.1H44.9999V10.3H47.8999V10.7ZM52.4999 8.20002H49.7999V10.1H52.2999V10.8H49.7999V12.7H52.4999V13.5H48.9999V7.50002H52.4999V8.20002ZM55.7999 13.5H54.9999V8.20002H53.2999V7.50002H57.4999V8.20002H55.7999V13.5ZM60.3999 13.5V7.50002H61.1999V13.5H60.3999ZM64.5999 13.5H63.7999V8.20002H62.0999V7.50002H66.1999V8.20002H64.4999V13.5H64.5999ZM74.0999 12.7C73.4999 13.3 72.7999 13.6 71.8999 13.6C70.9999 13.6 70.2999 13.3 69.6999 12.7C69.0999 12.1 68.7999 11.4 68.7999 10.5C68.7999 9.60002 69.0999 8.90002 69.6999 8.30002C70.2999 7.70002 70.9999 7.40002 71.8999 7.40002C72.7999 7.40002 73.4999 7.70002 74.0999 8.30002C74.6999 8.90002 74.9999 9.60002 74.9999 10.5C74.9999 11.4 74.6999 12.1 74.0999 12.7ZM70.2999 12.2C70.6999 12.6 71.2999 12.9 71.8999 12.9C72.4999 12.9 73.0999 12.7 73.4999 12.2C73.8999 11.8 74.1999 11.2 74.1999 10.5C74.1999 9.80002 73.9999 9.20002 73.4999 8.80002C73.0999 8.40002 72.4999 8.10002 71.8999 8.10002C71.2999 8.10002 70.6999 8.30002 70.2999 8.80002C69.8999 9.20002 69.5999 9.80002 69.5999 10.5C69.5999 11.2 69.7999 11.8 70.2999 12.2ZM76.0999 13.5V7.50002H76.9999L79.8999 12.2V7.50002H80.6999V13.5H79.8999L76.7999 8.60002V13.5H76.0999Z" fill="white" stroke="white" stroke-width="0.2" stroke-miterlimit="10"/>
<path d="M68.6001 22.3C66.2001 22.3 64.3001 24.1 64.3001 26.6C64.3001 29 66.2001 30.9 68.6001 30.9C71.0001 30.9 72.9001 29.1 72.9001 26.6C72.9001 24 71.0001 22.3 68.6001 22.3ZM68.6001 29.1C67.3001 29.1 66.2001 28 66.2001 26.5C66.2001 25 67.3001 23.9 68.6001 23.9C69.9001 23.9 71.0001 24.9 71.0001 26.5C71.0001 28 69.9001 29.1 68.6001 29.1ZM59.3001 22.3C56.9001 22.3 55.0001 24.1 55.0001 26.6C55.0001 29 56.9001 30.9 59.3001 30.9C61.7001 30.9 63.6001 29.1 63.6001 26.6C63.6001 24 61.7001 22.3 59.3001 22.3ZM59.3001 29.1C58.0001 29.1 56.9001 28 56.9001 26.5C56.9001 25 58.0001 23.9 59.3001 23.9C60.6001 23.9 61.7001 24.9 61.7001 26.5C61.7001 28 60.6001 29.1 59.3001 29.1ZM48.2001 23.6V25.4H52.5001C52.4001 26.4 52.0001 27.2 51.5001 27.7C50.9001 28.3 49.9001 29 48.2001 29C45.5001 29 43.5001 26.9 43.5001 24.2C43.5001 21.5 45.6001 19.4 48.2001 19.4C49.6001 19.4 50.7001 20 51.5001 20.7L52.8001 19.4C51.7001 18.4 50.3001 17.6 48.3001 17.6C44.7001 17.6 41.6001 20.6 41.6001 24.2C41.6001 27.8 44.7001 30.8 48.3001 30.8C50.3001 30.8 51.7001 30.2 52.9001 28.9C54.1001 27.7 54.5001 26 54.5001 24.7C54.5001 24.3 54.5001 23.9 54.4001 23.6H48.2001ZM93.6001 25C93.2001 24 92.2001 22.3 90.0001 22.3C87.8001 22.3 86.0001 24 86.0001 26.6C86.0001 29 87.8001 30.9 90.2001 30.9C92.1001 30.9 93.3001 29.7 93.7001 29L92.3001 28C91.8001 28.7 91.2001 29.2 90.2001 29.2C89.2001 29.2 88.6001 28.8 88.1001 27.9L93.8001 25.5L93.6001 25ZM87.8001 26.4C87.8001 24.8 89.1001 23.9 90.0001 23.9C90.7001 23.9 91.4001 24.3 91.6001 24.8L87.8001 26.4ZM83.1001 30.5H85.0001V18H83.1001V30.5ZM80.1001 23.2C79.6001 22.7 78.8001 22.2 77.8001 22.2C75.7001 22.2 73.7001 24.1 73.7001 26.5C73.7001 28.9 75.6001 30.7 77.8001 30.7C78.8001 30.7 79.6001 30.2 80.0001 29.7H80.1001V30.3C80.1001 31.9 79.2001 32.8 77.8001 32.8C76.7001 32.8 75.9001 32 75.7001 31.3L74.1001 32C74.6001 33.1 75.8001 34.5 77.9001 34.5C80.1001 34.5 81.9001 33.2 81.9001 30.1V22.5H80.1001V23.2ZM77.9001 29.1C76.6001 29.1 75.5001 28 75.5001 26.5C75.5001 25 76.6001 23.9 77.9001 23.9C79.2001 23.9 80.2001 25 80.2001 26.5C80.2001 28 79.2001 29.1 77.9001 29.1ZM102.3 18H97.8001V30.5H99.7001V25.8H102.3C104.4 25.8 106.4 24.3 106.4 21.9C106.4 19.5 104.4 18 102.3 18ZM102.4 24H99.7001V19.7H102.4C103.8 19.7 104.6 20.9 104.6 21.8C104.5 22.9 103.7 24 102.4 24ZM113.9 22.2C112.5 22.2 111.1 22.8 110.6 24.1L112.3 24.8C112.7 24.1 113.3 23.9 114 23.9C115 23.9 115.9 24.5 116 25.5V25.6C115.7 25.4 114.9 25.1 114.1 25.1C112.3 25.1 110.5 26.1 110.5 27.9C110.5 29.6 112 30.7 113.6 30.7C114.9 30.7 115.5 30.1 116 29.5H116.1V30.5H117.9V25.7C117.7 23.5 116 22.2 113.9 22.2ZM113.7 29.1C113.1 29.1 112.2 28.8 112.2 28C112.2 27 113.3 26.7 114.2 26.7C115 26.7 115.4 26.9 115.9 27.1C115.7 28.3 114.7 29.1 113.7 29.1ZM124.2 22.5L122.1 27.9H122L119.8 22.5H117.8L121.1 30.1L119.2 34.3H121.1L126.2 22.5H124.2ZM107.4 30.5H109.3V18H107.4V30.5Z" fill="white"/>
<path d="M10.9 8C10.6 8.3 10.5 8.8 10.5 9.4V31.5C10.5 32.1 10.7 32.6 11 32.9L11.1 33L23.5 20.6V20.4L10.9 8Z" fill="url(#paint0_linear_13_2)"/>
<path d="M27.4999 24.8L23.3999 20.7V20.4L27.4999 16.3L27.5999 16.4L32.4999 19.2C33.8999 20 33.8999 21.3 32.4999 22.1L27.4999 24.8Z" fill="url(#paint1_linear_13_2)"/>
<path d="M27.5999 24.7L23.3999 20.5L10.8999 33C11.3999 33.5 12.0999 33.5 12.9999 33.1L27.5999 24.7Z" fill="url(#paint2_linear_13_2)"/>
<path d="M27.5999 16.3001L12.9999 8.00005C12.0999 7.50005 11.3999 7.60005 10.8999 8.10005L23.3999 20.5001L27.5999 16.3001Z" fill="url(#paint3_linear_13_2)"/>
<path opacity="0.2" d="M27.4999 24.6L12.9999 32.8C12.1999 33.3 11.4999 33.2 10.9999 32.8L10.8999 32.9L10.9999 33C11.4999 33.4 12.1999 33.5 12.9999 33L27.4999 24.6Z" fill="black"/>
<path opacity="0.12" d="M10.9 32.8C10.6 32.5 10.5 32 10.5 31.4V31.5C10.5 32.1 10.7 32.6 11 32.9V32.8H10.9ZM32.5 21.8L27.5 24.6L27.6 24.7L32.5 21.9C33.2 21.5 33.5 21 33.5 20.5C33.5 21 33.1 21.4 32.5 21.8Z" fill="black"/>
<path opacity="0.25" d="M13 8.10003L32.5 19.2C33.1 19.6 33.5 20 33.5 20.5C33.5 20 33.2 19.5 32.5 19.1L13 8.00003C11.6 7.20003 10.5 7.80003 10.5 9.40003V9.50003C10.5 8.00003 11.6 7.30003 13 8.10003Z" fill="white"/>
</g>
<defs>
<linearGradient id="paint0_linear_13_2" x1="22.3" y1="9.21" x2="5.517" y2="25.992" gradientUnits="userSpaceOnUse">
<stop stop-color="#00A0FF"/>
<stop offset="0.007" stop-color="#00A1FF"/>
<stop offset="0.26" stop-color="#00BEFF"/>
<stop offset="0.512" stop-color="#00D2FF"/>
<stop offset="0.76" stop-color="#00DFFF"/>
<stop offset="1" stop-color="#00E3FF"/>
</linearGradient>
<linearGradient id="paint1_linear_13_2" x1="34.3339" y1="20.501" x2="10.1369" y2="20.501" gradientUnits="userSpaceOnUse">
<stop stop-color="#FFE000"/>
<stop offset="0.409" stop-color="#FFBD00"/>
<stop offset="0.775" stop-color="#FFA500"/>
<stop offset="1" stop-color="#FF9C00"/>
</linearGradient>
<linearGradient id="paint2_linear_13_2" x1="25.3269" y1="22.796" x2="2.5689" y2="45.554" gradientUnits="userSpaceOnUse">
<stop stop-color="#FF3A44"/>
<stop offset="1" stop-color="#C31162"/>
</linearGradient>
<linearGradient id="paint3_linear_13_2" x1="7.7969" y1="0.676051" x2="17.9599" y2="10.8391" gradientUnits="userSpaceOnUse">
<stop stop-color="#32A071"/>
<stop offset="0.069" stop-color="#2DA771"/>
<stop offset="0.476" stop-color="#15CF74"/>
<stop offset="0.801" stop-color="#06E775"/>
<stop offset="1" stop-color="#00F076"/>
</linearGradient>
<clipPath id="clip0_13_2">
<rect width="136" height="41" fill="white"/>
</clipPath>
</defs>
</svg>
